<svg id="Capa_1" data-name="Capa 1" xmlns="http://www.w3.org/2000/svg" xmlns:xlink="http://www.w3.org/1999/xlink" viewBox="0 0 861.2 578.92"><defs><style>.cls-1{fill:none;}.cls-2,.cls-7{stroke:#000;}.cls-2{stroke-miterlimit:10;stroke-width:12px;fill:url(#linear-gradient);}.cls-3,.cls-7{fill:#fff;}.cls-4{clip-path:url(#clip-path);}.cls-5{fill:url(#linear-gradient-2);}.cls-6{fill:url(#linear-gradient-3);}.cls-7{stroke-linecap:square;stroke-linejoin:round;stroke-width:10px;}.cls-8{fill:#ffce00;}.cls-9{fill:#8b572a;}.cls-10{fill:#dfdfe3;}.cls-10,.cls-15{isolation:isolate;}.cls-11{fill:#ffa21a;}.cls-12{fill:#4d3325;opacity:0.5;}.cls-13{fill:#81cc3b;}.cls-14{fill:#7bba38;}.cls-15{opacity:0.1;}</style><linearGradient id="linear-gradient" x1="333" y1="23.02" x2="-13.39" y2="532.77" gradientUnits="userSpaceOnUse"><stop offset="0" stop-color="#1aa59c"/><stop offset="1" stop-color="#005daf"/></linearGradient><clipPath id="clip-path"><circle id="SVGID" class="cls-1" cx="209.29" cy="205.06" r="190.39"/></clipPath><linearGradient id="linear-gradient-2" x1="209.09" y1="16.83" x2="155.61" y2="373.63" gradientUnits="userSpaceOnUse"><stop offset="0" stop-color="#1abc9c"/><stop offset="1" stop-color="#1a5daf"/></linearGradient><linearGradient id="linear-gradient-3" x1="266.18" y1="25.39" x2="212.7" y2="382.19" xlink:href="#linear-gradient-2"/></defs><title>onboarding_icons</title><circle class="cls-2" cx="209.29" cy="205.06" r="190.39"/><path class="cls-3" d="M132.46,160.13h0l0,.11,0-.11Z"/><g class="cls-4"><path class="cls-5" d="M223.2,279.46a60.29,60.29,0,0,1-13.91,1.62c-33.21,0-61.46-25.3-63.5-62.81-.26-4.7,2.4-16.87,3.42-21.27L97.86,175.13c-5.24,13.25-8.11,30.7-8.11,45.81,0,64.36,55.18,116.54,119.55,116.54a116.22,116.22,0,0,0,43.21-8.27Z"/><path class="cls-6" d="M209.29,98.19a116.11,116.11,0,0,0-48.52,10.55l28.93,49.12a60,60,0,0,1,19.59-3.27c29.4,0,60.57,24.65,63.57,55l-83.62.36,130.36,55.24c6.81-14.8,9-32.12,9-49.48C328.66,151.34,273.66,98.19,209.29,98.19Z"/><path class="cls-3" d="M132.46,160.13h0l0,.11,0-.11Z"/><path class="cls-7" d="M223.2,266.69a60.28,60.28,0,0,1-13.91,1.62c-33.21,0-61.46-25.29-63.5-62.81-.26-4.7,2.4-16.87,3.42-21.26L97.86,162.36c-5.24,13.25-8.11,30.7-8.11,45.81,0,64.36,55.18,116.54,119.55,116.54a116.22,116.22,0,0,0,43.21-8.27Z"/><path class="cls-7" d="M209.29,85.42A116.11,116.11,0,0,0,160.77,96l28.93,49.12a60,60,0,0,1,19.59-3.27c29.4,0,60.57,24.65,63.57,55l-83.62.36,130.36,55.24c6.81-14.8,9-32.12,9-49.48C328.66,138.56,273.66,85.42,209.29,85.42Z"/></g><rect class="cls-8" x="526.01" y="110.09" width="46.5" height="10.5"/><path class="cls-9" d="M709.66,135.59V280.81h-.86a7.5,7.5,0,0,0-7.5,7.5v2.83h-48a19.63,19.63,0,0,1-2.86-2.82c-1.87-2.34-3.29-5.82-4.8-9.5-2.41-5.88-5.13-12.54-10.84-17.1s-12.76-5.71-19-6.75c-3.94-.66-7.66-1.28-10.39-2.59s-5.37-3.76-8.28-6.39c-4.75-4.29-10.13-9.16-17.36-10.8-7-1.59-13.81.41-19.84,2.17-3.89,1.14-7.57,2.22-10.7,2.22s-6.81-1.08-10.71-2.22c-6-1.76-12.86-3.76-19.83-2.17-7.23,1.64-12.62,6.51-17.36,10.8-2.91,2.63-5.66,5.12-8.28,6.39s-6.46,1.93-10.4,2.59c-6.25,1-13.33,2.22-19,6.75s-8.43,11.22-10.84,17.1c-1.5,3.68-2.93,7.16-4.8,9.51a19.63,19.63,0,0,1-2.86,2.81h-48v-2.83a7.5,7.5,0,0,0-7.5-7.5h-.86V135.59h320.8ZM690.71,261A7.5,7.5,0,0,0,685,247.11L659.65,257.6A7.5,7.5,0,0,0,662.52,272a7.65,7.65,0,0,0,2.87-.57Zm-34.63-45.75a7.5,7.5,0,1,0-10.61-10.6l-12.73,12.74A7.5,7.5,0,1,0,643.35,228Zm-42.49-39.48A7.5,7.5,0,1,0,599.73,170l-10.49,25.32a7.5,7.5,0,0,0,4.06,9.8,7.64,7.64,0,0,0,2.86.57,7.51,7.51,0,0,0,6.94-4.63Zm-56.83,9.35v-18a7.5,7.5,0,1,0-15,0v18a7.5,7.5,0,0,0,15,0Zm-51.54,20a7.52,7.52,0,0,0,4.06-9.8L498.79,170a7.5,7.5,0,1,0-13.86,5.74l10.49,25.32a7.49,7.49,0,0,0,6.93,4.63A7.65,7.65,0,0,0,505.22,205.12ZM465.77,228a7.49,7.49,0,0,0,0-10.6L453,204.62a7.5,7.5,0,1,0-10.61,10.6L455.16,228a7.5,7.5,0,0,0,10.61,0ZM442.93,267.4a7.51,7.51,0,0,0-4.06-9.8l-25.32-10.49A7.5,7.5,0,1,0,407.81,261l25.32,10.49A7.64,7.64,0,0,0,436,272,7.51,7.51,0,0,0,442.93,267.4Z"/><path class="cls-9" d="M701.3,339.79V450a66,66,0,0,0-26.38,45.57H423.6A66,66,0,0,0,397.22,450V339.79H505.78V382.9a7.5,7.5,0,0,0,7.5,7.5h71.95a7.5,7.5,0,0,0,7.5-7.5V339.79H701.3Z"/><path class="cls-8" d="M549.26,333.58a7.41,7.41,0,1,1-7.42,7.41A7.42,7.42,0,0,1,549.26,333.58Z"/><path class="cls-10" d="M577.73,306.58V375.4H520.78V306.58h56.95ZM571.67,341a22.42,22.42,0,1,0-22.41,22.41A22.44,22.44,0,0,0,571.67,341Z"/><path class="cls-8" d="M382.22,295.81V441.68a65.49,65.49,0,0,0-16.68-4.17V295.81h16.68Z"/><polygon class="cls-8" points="505.77 306.14 505.77 324.79 397.21 324.79 397.21 306.14 399.25 306.14 505.77 306.14"/><rect class="cls-8" x="592.73" y="306.14" width="108.57" height="18.65"/><path class="cls-8" d="M733,295.81v141.7a65.28,65.28,0,0,0-16.68,4.17V295.81H733Z"/><path class="cls-8" d="M733,452.63v42.94H690A51.11,51.11,0,0,1,733,452.63Z"/><path class="cls-8" d="M408.48,495.57H365.54V452.63A51.12,51.12,0,0,1,408.48,495.57Z"/><path class="cls-11" d="M634.7,291.14H463.81c1.08-2.19,2-4.43,2.91-6.64,1.88-4.6,3.65-8.94,6.31-11.06s7.23-2.86,12.11-3.67,9.79-1.63,14.46-3.88,8.25-5.55,11.82-8.77,7.22-6.53,10.62-7.31c3.17-.72,7.61.58,12.3,1.95,4.52,1.32,9.64,2.82,14.92,2.82s10.4-1.5,14.92-2.82c4.69-1.37,9.12-2.67,12.3-1.94,3.4.77,6.9,3.94,10.61,7.3s7.26,6.56,11.83,8.77,9.64,3.07,14.45,3.88,9.49,1.57,12.12,3.67,4.43,6.46,6.3,11.05C632.7,286.7,633.62,289,634.7,291.14Z"/><path d="M748,288.31V503.07a7.5,7.5,0,0,1-7.5,7.5H358a7.5,7.5,0,0,1-7.5-7.5V288.31a7.5,7.5,0,0,1,7.5-7.5h15.82V128.09a7.5,7.5,0,0,1,7.5-7.5H511v-18a7.5,7.5,0,0,1,7.5-7.5H580a7.5,7.5,0,0,1,7.5,7.5v18H717.16a7.5,7.5,0,0,1,7.5,7.5V280.81h15.82A7.5,7.5,0,0,1,748,288.31ZM733,495.57V452.63a51.11,51.11,0,0,0-43,42.94h43Zm0-58.06V295.81H716.3V441.68A65.28,65.28,0,0,1,733,437.51Zm-23.32-156.7V135.59H388.86V280.81h.86a7.5,7.5,0,0,1,7.5,7.5v2.83h48a19.63,19.63,0,0,0,2.86-2.81c1.87-2.35,3.3-5.83,4.8-9.51,2.41-5.88,5.13-12.54,10.84-17.1s12.76-5.71,19-6.75c3.94-.66,7.67-1.28,10.4-2.59s5.37-3.76,8.28-6.39c4.74-4.29,10.13-9.16,17.36-10.8,7-1.59,13.8.41,19.83,2.17,3.9,1.14,7.58,2.22,10.71,2.22s6.81-1.08,10.7-2.22c6-1.76,12.87-3.76,19.84-2.17,7.23,1.64,12.61,6.51,17.36,10.8,2.91,2.63,5.65,5.12,8.28,6.39s6.45,1.93,10.39,2.59c6.25,1,13.34,2.22,19,6.75s8.43,11.22,10.84,17.1c1.51,3.68,2.93,7.16,4.8,9.5a19.64,19.64,0,0,0,2.86,2.82h48v-2.83a7.5,7.5,0,0,1,7.5-7.5h.86ZM701.3,450V339.79H592.73V382.9a7.5,7.5,0,0,1-7.5,7.5H513.28a7.5,7.5,0,0,1-7.5-7.5V339.79H397.22V450a66,66,0,0,1,26.38,45.57H674.92A66,66,0,0,1,701.3,450Zm0-125.21V306.14H592.73v18.65ZM463.81,291.14H634.7c-1.08-2.19-2-4.44-2.91-6.65-1.87-4.59-3.65-8.93-6.3-11.05s-7.24-2.86-12.12-3.67-9.79-1.63-14.45-3.88-8.26-5.55-11.83-8.77-7.21-6.53-10.61-7.3c-3.18-.73-7.61.57-12.3,1.94-4.52,1.32-9.64,2.82-14.92,2.82s-10.4-1.5-14.92-2.82c-4.69-1.37-9.13-2.67-12.3-1.95-3.4.78-6.91,3.95-10.62,7.31s-7.26,6.56-11.82,8.77-9.65,3.07-14.46,3.88-9.48,1.57-12.11,3.67-4.43,6.46-6.31,11.06C465.81,286.71,464.89,289,463.81,291.14ZM577.73,375.4V306.58H520.78V375.4Zm-5.22-254.81v-10.5H526v10.5Zm-66.73,204.2V306.14H397.22v18.65ZM389.72,495.57h18.76a51.12,51.12,0,0,0-42.94-42.94v42.94Zm-7.5-53.89V295.81H365.54v141.7A65.49,65.49,0,0,1,382.22,441.68Z"/><path class="cls-11" d="M662.52,278a13.5,13.5,0,0,1-5.16-26l25.31-10.49A13.5,13.5,0,0,1,693,266.51L667.68,277A13.68,13.68,0,0,1,662.52,278Z"/><path d="M687.84,246.54A7.5,7.5,0,0,1,690.71,261l-25.32,10.49a7.65,7.65,0,0,1-2.87.57,7.5,7.5,0,0,1-2.87-14.43L685,247.11a7.47,7.47,0,0,1,2.87-.58m0-12h0a19.39,19.39,0,0,0-7.47,1.49l-25.31,10.49A19.5,19.5,0,0,0,662.52,284a19.57,19.57,0,0,0,7.37-1.44l0,0,0,0,25.32-10.49a19.5,19.5,0,0,0-7.46-37.52Z"/><path class="cls-11" d="M638,236.16a13.51,13.51,0,0,1-9.55-23l12.73-12.74a13.5,13.5,0,1,1,19.1,19.08L647.59,232.2A13.41,13.41,0,0,1,638,236.16Z"/><path d="M650.78,202.42a7.5,7.5,0,0,1,5.3,12.81L643.35,228a7.5,7.5,0,0,1-10.61-10.6l12.73-12.74a7.47,7.47,0,0,1,5.31-2.21m0-12h0A19.37,19.37,0,0,0,637,196.15l-12.72,12.73a19.5,19.5,0,0,0,27.58,27.57l12.73-12.74a19.5,19.5,0,0,0-13.79-33.29Z"/><path class="cls-11" d="M596.16,211.69a13.5,13.5,0,0,1-12.46-8.34,13.38,13.38,0,0,1,0-10.34l10.49-25.31a13.5,13.5,0,0,1,25,10.32l-10.49,25.33A13.48,13.48,0,0,1,596.16,211.69Z"/><path d="M606.65,165.37a7.51,7.51,0,0,1,6.93,10.38L603.1,201.06a7.51,7.51,0,0,1-6.94,4.63,7.64,7.64,0,0,1-2.86-.57,7.5,7.5,0,0,1-4.06-9.8L599.73,170a7.49,7.49,0,0,1,6.93-4.64m0-12h0a19.43,19.43,0,0,0-18,12.06l-10.48,25.3a19.5,19.5,0,0,0,10.55,25.48l.05,0,.05,0a19.5,19.5,0,0,0,25.38-10.58l10.49-25.33a19.51,19.51,0,0,0-18-27Z"/><path d="M549.26,318.58A22.41,22.41,0,1,1,526.84,341,22.44,22.44,0,0,1,549.26,318.58ZM556.67,341a7.42,7.42,0,1,0-7.41,7.41A7.42,7.42,0,0,0,556.67,341Z"/><path class="cls-11" d="M549.26,198.59a13.52,13.52,0,0,1-13.5-13.5v-18a13.5,13.5,0,1,1,27,0v18A13.52,13.52,0,0,1,549.26,198.59Z"/><path d="M549.26,159.59a7.5,7.5,0,0,1,7.5,7.5v18a7.5,7.5,0,0,1-15,0v-18a7.49,7.49,0,0,1,7.5-7.5m0-12a19.52,19.52,0,0,0-19.5,19.5v18a19.5,19.5,0,0,0,39,0v-18a19.52,19.52,0,0,0-19.5-19.5Z"/><path class="cls-11" d="M502.35,211.69a13.45,13.45,0,0,1-12.48-8.35L479.38,178a13.5,13.5,0,1,1,24.94-10.34L514.82,193a13.53,13.53,0,0,1-7.3,17.64A13.68,13.68,0,0,1,502.35,211.69Z"/><path d="M491.85,165.37a7.51,7.51,0,0,1,6.93,4.64l10.49,25.32a7.52,7.52,0,0,1-4.06,9.8,7.65,7.65,0,0,1-2.87.57,7.49,7.49,0,0,1-6.93-4.63l-10.49-25.32a7.51,7.51,0,0,1,6.93-10.38m0-12h0a19.5,19.5,0,0,0-18,27l10.49,25.31a19.5,19.5,0,0,0,25.38,10.59l.06,0,.06,0a19.54,19.54,0,0,0,10.54-25.47l-10.49-25.33a19.46,19.46,0,0,0-18-12Z"/><path class="cls-11" d="M460.47,236.16a13.46,13.46,0,0,1-9.54-3.94l-12.75-12.76a13.5,13.5,0,1,1,19.1-19.08L470,213.12a13.5,13.5,0,0,1-9.54,23Z"/><path d="M447.73,202.42a7.49,7.49,0,0,1,5.31,2.2l12.73,12.74A7.5,7.5,0,1,1,455.16,228l-12.73-12.74a7.5,7.5,0,0,1,5.3-12.8m0-12a19.5,19.5,0,0,0-13.79,33.29l12.73,12.74a19.5,19.5,0,1,0,27.58-27.57l-12.73-12.74a19.39,19.39,0,0,0-13.8-5.72Z"/><path class="cls-11" d="M436,278a13.59,13.59,0,0,1-5.11-1l-25.37-10.51a13.5,13.5,0,1,1,10.34-24.94l25.32,10.49A13.5,13.5,0,0,1,436,278Z"/><path d="M410.67,246.54a7.48,7.48,0,0,1,2.87.58l25.32,10.49A7.5,7.5,0,0,1,436,272a7.64,7.64,0,0,1-2.86-.57L407.81,261a7.5,7.5,0,0,1,2.87-14.44m0-12h0a19.5,19.5,0,0,0-7.47,37.52l25.33,10.49,0,0,0,0a19.5,19.5,0,0,0,14.82-36.07L418.14,236a19.38,19.38,0,0,0-7.47-1.49Z"/><path class="cls-12" d="M417.26,403h64a10.67,10.67,0,0,0,0-21.33h-64a10.67,10.67,0,1,0,0,21.33Z"/><path class="cls-12" d="M477.85,452.35h64a10.67,10.67,0,0,0,0-21.33h-64a10.67,10.67,0,1,0,0,21.33Z"/><path class="cls-12" d="M612.41,422.11h64a10.67,10.67,0,1,0,0-21.33h-64a10.67,10.67,0,1,0,0,21.33Z"/><path class="cls-12" d="M569.74,498.44h64a10.67,10.67,0,1,0,0-21.33h-64a10.67,10.67,0,1,0,0,21.33Z"/><path d="M845.09,368.53l-81.76-28.86a4.81,4.81,0,0,0-3.2,0l-81.76,28.86a4.82,4.82,0,0,0-3.21,4.54v57.71c0,74.68,11.07,102,84.4,139a4.79,4.79,0,0,0,4.33,0c73.33-37,84.4-64.27,84.4-139V373.07A4.82,4.82,0,0,0,845.09,368.53Z"/><path class="cls-13" d="M761.73,352.54l-72.22,23.93-2.08,54.31c0,8.7.14,16.66.49,24h73.81Z"/><path class="cls-14" d="M838.18,454.82c.36-7.38.5-15.34.5-24l-2.15-54.31-74.8-25V454.82Z"/><path class="cls-13" d="M761.73,452.67V555.74c59.57-30.37,73.85-49.8,76.45-103.07Z"/><path class="cls-14" d="M687.44,452.67c2.59,53.27,14.72,72.7,74.29,103.07V452.67Z"/><path class="cls-15" d="M761.73,539.24c-67.83-34.58-76.95-48.12-76.95-119.65v9c0,71.53,9.12,94.69,76.95,129.27,67.83-34.58,76.95-57.73,76.95-129.27v-9C838.68,491.12,829.56,504.66,761.73,539.24Z"/><path d="M732.88,426a28.79,28.79,0,0,0,10.44,22.19l-5.58,39.66a4.81,4.81,0,0,0,4.76,5.48H781a4.81,4.81,0,0,0,4.76-5.48l-5.58-39.66A28.85,28.85,0,1,0,732.88,426Z"/><path class="cls-10" d="M781,426a19.23,19.23,0,0,1-8.63,16,4.82,4.82,0,0,0-2.1,4.68l5.2,37H748l5.2-37a4.82,4.82,0,0,0-2.1-4.68A19.23,19.23,0,1,1,781,426Z"/><path class="cls-15" d="M757.27,483.68l4.78-34a4.82,4.82,0,0,0-2.1-4.68,19.23,19.23,0,0,1,10.6-35.27c.59,0,1.15.12,1.73.17A19.22,19.22,0,0,0,751.13,442a4.82,4.82,0,0,1,2.1,4.68l-5.2,37Z"/></svg>